<svg version="1.1" id="Layer_1" xmlns="http://www.w3.org/2000/svg" x="0" y="0" viewBox="0 0 268.9 158.3" xml:space="preserve"><path d="M0 0h268.9v2.6H0V0zm14.4 74.1H8L.4 17.7h7.7L11.4 47l.2 1.8h.6l.2-1.8 3.5-29.3h6L25.4 47l.2 1.8h.6l.2-1.8 3.3-29.3h7.7l-7.6 56.4h-6.4l-3.8-26.7-.6-3.3h-.3l-.5 3.3-3.8 26.7zm42-24.6H50v24.6h-8.3V17.7H50V41h6.4V17.7h8.3v56.4h-8.3V49.5zm25.3 25.2c-11.1 0-11.1-12.2-11.1-12.2V29.2S70.5 17 81.7 17s11.1 12.2 11.1 12.2v33.2c-.1.1 0 12.3-11.1 12.3m0-49.6c-2.9 0-2.8 4.1-2.8 4.1v33.2s-.2 4.1 2.8 4.1 2.8-4.1 2.8-4.1V29.2c-.1 0 .1-4.1-2.8-4.1m16.9-7.4h8.3v48.7h11v7.7H98.6V17.7zm23 0h19v8.5h-10.7V41h7.7v9h-7.7v15.5h10.7V74h-19V17.7zm37.1 20.2v-8.7s.2-4.1-2.8-4.1c-2.9 0-2.8 4.1-2.8 4.1v33.9s-.2 4.1 2.8 4.1c2.9 0 2.8-4.1 2.8-4.1V53h-3.3v-7H167v28.1h-4.9l-1-2.7c-1.5 1.9-3.8 3.3-6.4 3.3-10.5 0-9.7-12.2-9.7-12.2V29.2S144.9 17 156.1 17 167 29.2 167 29.2v8.7h-8.3zm29.5 36.2l-4.3-23.8h-2.2v23.8h-8.3V17.7h8.3c9.8 0 14.1 5.7 14.1 16.3 0 5.6-1.5 10.7-4.6 12.8l5.3 27.3h-8.3zm-6.5-48.2v16.7c2.3 0 6.1-.3 6.1-8.4s-3.8-8.3-6.1-8.3m17.4 48.2l8.5-56.4h10.1l8.5 56.4h-8.1l-1.5-11.5h-8l-1.5 11.5h-8zm14-38.1l-.2-1.5h-.5l-.2 1.5-2.4 17.8h5.7L213.1 36zm17.3-18.3h8.3v56.4h-8.3V17.7zm23.5 27l-.7-2.6h-.5v32h-7.6V17.7h7.4l8.1 29.4.7 2.6h.5v-32h7.6v56.4H262l-8.1-29.4zM22.1 143.1h-7.8v-2.8s-3.3 3.4-6.1 3.4c-4.2 0-6-4.8-6-8.2v-26.8c0-3.5 1.8-8.2 6-8.2 2.8 0 6.1 3.4 6.1 3.4V86.6h7.8v56.5zm-7.8-32.8c0-1.2-1.2-2.5-2.3-2.5-1.2 0-2.1 1.1-2.1 2.5v23.6c0 1.5.9 2.5 2.1 2.5 1.1 0 2.3-1.1 2.3-2.5v-23.6zm14.2-23.7h7.8v7.8h-7.8v-7.8zm0 14.5h7.8v42h-7.8v-42zm33.2 21.7s-.2 10.4-10 10.4c-.5 0-1 0-1.5-.1-.6.5-1.1 1.3-1.1 1.9 0 1.8 3.1 2.1 5.9 2.6 4.8.7 10.7 2.5 10.7 9.7 0 8.2-6.9 10.7-13.3 10.7-7.4-.2-12.4-1.9-12.4-8.1 0-2.8 3.1-5 6.1-6.4-2.5-.7-4.7-2.4-4.7-5.6 0-2.4 2.6-5.1 4.8-6.3-4.4-2.9-4.5-9.1-4.5-9.1v-11.4s.2-10.7 9.8-10.7c3.9 0 6.3 1.8 7.8 3.8 1.1-1.1 3.8-3.8 6.4-3.8v6.9c-2.1 0-3.6.5-4.5.9.4 1.5.4 2.6.4 2.6l.1 12zm-7.2 22.9l-4-.8c-1.6.9-2.8 2.1-2.8 3.7s1.5 2.9 5.1 2.9c2.6 0 5.9-.8 5.9-2.8-.1-1.3-.4-2.3-4.2-3m-2.8-38.1c-2.5 0-2.2 3.8-2.2 3.8V123s-.2 3.8 2.2 3.8c2.6 0 2.4-3.8 2.4-3.8v-11.5c0-.1.2-3.9-2.4-3.9m17.6-21h7.8v7.8h-7.8v-7.8zm0 14.5h7.8v42h-7.8v-42zm23.3-10.4v10.4h5.3v7h-5.3V129c0 2.6 0 6.9 2.5 6.9 1.3 0 2.8-.3 2.8-.3v7.6s-1.7.5-4.1.5c-8.9 0-8.9-9.2-8.9-14.1v-21.5H81v-7h3.9V90.7h7.7zm21.3 25v-4.6c0-1.5 0-3.8-2.1-3.8-2.6 0-2.1 3.8-2.2 6.2h-7.8v-1.8c0-6.1 4.5-11.2 10.4-11.2 5.2 0 9.4 4.2 9.4 9.5v25.9c0 3.8.2 5.4.5 7.3h-7.6c-.7-.8-.7-2.9-.7-3.4h-.5c-.8 1.5-3.1 4-6.2 4-2.1 0-6.2-1.5-6.2-10.4 0-14.3 12.2-15.2 13-17.7m-3.2 20.4c1.8 0 3.2-1.1 3.2-2.5v-10.7c-3.8 1.6-5.4 5.4-5.4 9.4 0 .9.3 3.8 2.2 3.8m17.1-49.5h7.8V143h-7.8V86.6z" fill="#fff"/></svg>